<svg width="99" height="25" viewBox="0 0 99 25" fill="none" xmlns="http://www.w3.org/2000/svg">
<path d="M6.05294 10.5688L5.37462 10.2488L6.05294 10.5688ZM36.1428 13.9238L36.875 13.7611L36.1428 13.9238ZM37.3503 19.3573L36.6181 19.52L37.3503 19.3573ZM46.4717 20.9218L45.8356 20.5244L46.4717 20.9218ZM50.5853 14.3372L51.2214 14.7346L50.5853 14.3372ZM64.3173 14.609L63.666 14.9809L64.3173 14.609ZM66.1272 17.7788L66.7785 17.4069L66.1272 17.7788ZM77.096 20.7276L77.473 21.376L77.096 20.7276ZM98.5 8.28101L89.8398 8.30797L94.1932 15.7944L98.5 8.28101ZM1.67832 21.601L6.73126 10.8887L5.37462 10.2488L0.321676 20.961L1.67832 21.601ZM35.4107 14.0865L36.6181 19.52L38.0824 19.1946L36.875 13.7611L35.4107 14.0865ZM47.1078 21.3192L51.2214 14.7346L49.9492 13.9399L45.8356 20.5244L47.1078 21.3192ZM63.666 14.9809L65.4759 18.1507L66.7785 17.4069L64.9686 14.2371L63.666 14.9809ZM77.473 21.376L93.0419 12.3225L92.2878 11.0258L76.719 20.0793L77.473 21.376ZM65.4759 18.1507C67.8856 22.3706 73.2722 23.8188 77.473 21.376L76.719 20.0793C73.2383 22.1033 68.7751 20.9034 66.7785 17.4069L65.4759 18.1507ZM51.2214 14.7346C54.1273 10.083 60.9464 10.218 63.666 14.9809L64.9686 14.2371C61.6863 8.48879 53.4564 8.32589 49.9492 13.9399L51.2214 14.7346ZM36.6181 19.52C37.7344 24.5432 44.3814 25.6833 47.1078 21.3192L45.8356 20.5244C43.8205 23.7501 38.9075 22.9074 38.0824 19.1946L36.6181 19.52ZM6.73126 10.8887C12.9312 -2.25522 32.2581 -0.100292 35.4107 14.0865L36.875 13.7611C33.4123 -1.82111 12.1844 -4.18799 5.37462 10.2488L6.73126 10.8887Z" fill="#545454"/>
</svg>
