<svg width="120" height="120" viewBox="0 0 120 120" fill="none" xmlns="http://www.w3.org/2000/svg"><path d="M49.108 111.315a2.687 2.687 0 0 0-.815-.051 1.783 1.783 0 0 0-1.047.547c-.242.249-.447.588-.613 1.017a4.222 4.222 0 0 0-.21.725c-.165.874-.118 1.585.14 2.134.255.549.767.896 1.538 1.043l1.694.321 1.016-5.413-1.703-.323Zm1.492 6.739-2.855-.542c-.968-.184-1.655-.67-2.06-1.46-.36-.711-.45-1.551-.267-2.52.14-.749.408-1.399.803-1.95.696-.975 1.649-1.347 2.858-1.118l2.844.54-1.323 7.05Zm-8.71-4.069a2.37 2.37 0 0 1-.95-.579 1.98 1.98 0 0 1-.555-.884 2.342 2.342 0 0 1-.058-.987c.022-.245.113-.62.271-1.123l3.653 1.163c.144-.511.152-.956.026-1.334-.128-.376-.426-.638-.894-.787-.438-.139-.832-.106-1.184.1a1.54 1.54 0 0 0-.5.481l-.823-.262c.08-.176.217-.358.412-.545.192-.185.386-.325.583-.419a2.04 2.04 0 0 1 1.103-.203c.217.015.453.063.707.144.62.197 1.076.59 1.365 1.177.288.591.304 1.293.048 2.106-.252.801-.674 1.383-1.265 1.744-.592.362-1.238.431-1.94.208Zm-.64-2.633c-.081.374-.093.69-.038.947.103.477.422.8.959.971a1.33 1.33 0 0 0 1.1-.111c.347-.193.596-.502.747-.925l-2.769-.882Zm-.925 4.221 1.666-.951.642.204-1.275 1.075-1.033-.328Zm-4.049-3.808c-.54-.237-.921-.561-1.144-.971-.225-.412-.233-.954-.023-1.626l.782.343a1.57 1.57 0 0 0 .008.878c.084.272.314.49.69.655.512.225.988.135 1.426-.27.285-.263.53-.633.738-1.111.209-.48.283-.929.223-1.347-.06-.417-.308-.722-.743-.913-.334-.146-.642-.16-.924-.042-.286.119-.543.34-.772.663l-.783-.343c.366-.597.792-.965 1.278-1.103.484-.136 1.006-.082 1.563.163.626.275 1.026.722 1.2 1.343.173.623.11 1.278-.188 1.965-.365.842-.854 1.408-1.466 1.698-.612.289-1.233.295-1.865.018Zm-2.671-6.867c-.506-.289-.96-.295-1.363-.019a3.276 3.276 0 0 0-1.01 1.122c-.24.425-.367.809-.382 1.153-.022.542.23.964.755 1.264.467.266.907.282 1.32.046.414-.236.764-.607 1.049-1.111.273-.485.396-.949.366-1.393-.03-.445-.275-.798-.735-1.062Zm-2.398 4.175c-.585-.334-.97-.812-1.152-1.434-.184-.622-.06-1.313.368-2.072.415-.734.936-1.239 1.562-1.515.627-.275 1.315-.199 2.064.229.625.356 1.002.851 1.13 1.483.128.635-.01 1.31-.414 2.024-.432.765-.97 1.264-1.613 1.496-.644.233-1.292.162-1.945-.211Zm-4.064-2.871 2.029-2.818c.156-.217.25-.418.28-.606.056-.345-.089-.643-.433-.894-.495-.361-.992-.384-1.49-.07-.269.167-.552.457-.85.872l-1.501 2.085-.711-.518 3.055-4.244.672.489-.46.62a1.76 1.76 0 0 1 .638-.158c.431-.025.84.104 1.227.385.602.439.867.94.795 1.503-.038.303-.187.636-.447.998l-2.077 2.884-.727-.528ZM22.67 102.6l1.8-4.112-3.92 2.198-.714-.645 4.947-2.579.696.629-2.052 5.193-.757-.684Zm-3.734-3.659-.564-.615.663-.614c-.175.069-.445.09-.809.063a1.292 1.292 0 0 1-.955-.486 11.252 11.252 0 0 1-.12-.16l.68-.631a1.317 1.317 0 0 0 .176.229c.3.326.634.48 1.005.46.368-.017.689-.151.96-.403l2.208-2.044.593.648-3.837 3.553Zm-3.248-3.861-.545-.709 4.106-3.199.545.708-4.106 3.2Zm-1.552 1.209-.545-.708.786-.612.545.707-.786.612Zm-1.104-4.89-.451-.703.757-.492c-.184.038-.454.014-.808-.074a1.293 1.293 0 0 1-.86-.641 11.88 11.88 0 0 1-.092-.18l.778-.505a1.315 1.315 0 0 0 .135.255c.24.373.544.58.913.624.366.046.704-.033 1.015-.235l2.521-1.64.476.74-4.384 2.85Zm-4.549-8.418-.32-.771.686-.286c-.377-.111-.68-.268-.91-.473a2.092 2.092 0 0 1-.537-.775c-.283-.686-.236-1.249.142-1.69.206-.241.553-.464 1.04-.667l3.094-1.294.342.825-3.041 1.272c-.294.123-.514.266-.658.429-.24.27-.282.594-.125.973.08.193.164.342.254.45.158.194.371.334.64.42.214.069.416.088.605.059a3.69 3.69 0 0 0 .75-.245l2.527-1.057.335.812-4.824 2.018Zm1.733-9.13c-.162-.56-.484-.88-.966-.963a3.284 3.284 0 0 0-1.506.102c-.468.137-.828.324-1.078.56-.393.374-.505.851-.336 1.433.15.516.456.833.917.952.462.118.97.096 1.527-.067.534-.157.945-.405 1.233-.744.287-.339.357-.763.21-1.273Zm-4.628 1.324c-.188-.647-.132-1.257.17-1.83.3-.574.87-.984 1.707-1.23.809-.238 1.534-.237 2.176.002.643.239 1.084.772 1.325 1.6.2.692.127 1.308-.22 1.852-.35.544-.92.931-1.706 1.162-.844.248-1.577.231-2.202-.05-.624-.282-1.04-.784-1.25-1.506Zm2.662-5.199c.284-.078.492-.19.625-.337.24-.268.31-.672.213-1.21a1.713 1.713 0 0 0-.359-.808c-.184-.218-.422-.3-.714-.247a.563.563 0 0 0-.451.385c-.048.138-.086.4-.112.784l-.05.72c-.03.458-.093.804-.19 1.036-.166.415-.456.66-.87.735-.486.088-.912-.015-1.276-.309-.364-.297-.6-.743-.706-1.335-.14-.776-.013-1.376.38-1.802.25-.267.541-.427.875-.482l.147.817a1.019 1.019 0 0 0-.496.304c-.191.24-.243.605-.155 1.095.06.327.166.564.322.71a.597.597 0 0 0 .54.16c.224-.04.383-.183.478-.429.057-.143.093-.345.11-.605l.036-.598c.038-.649.109-1.092.212-1.329.16-.376.477-.608.951-.694.458-.084.885.019 1.281.307.395.286.657.784.785 1.495.138.766.063 1.34-.225 1.724-.292.38-.692.629-1.2.745l-.15-.832Zm-1.797-9.494c.56.003 1.03-.113 1.408-.349.38-.235.57-.615.573-1.139.003-.407-.17-.741-.516-1.004-.35-.266-.853-.4-1.507-.404-.66-.004-1.15.128-1.467.397-.32.268-.482.6-.484.998-.003.442.164.803.501 1.082.337.275.835.415 1.492.419Zm-2.76-1.34c.002-.4.088-.735.259-1.004.098-.156.27-.332.516-.53l-2.642-.015.005-.844 7.197.042-.004.79-.728-.004c.321.207.552.451.694.732.142.28.211.602.21.963-.004.583-.251 1.086-.742 1.51-.494.423-1.148.632-1.961.628-.762-.005-1.42-.202-1.975-.593-.557-.394-.834-.952-.83-1.675Zm.477-6.506a2.38 2.38 0 0 1 .386-1.042 1.97 1.97 0 0 1 .76-.712 2.33 2.33 0 0 1 .958-.242c.245-.024.63-.005 1.153.056l-.44 3.808c.529.045.967-.03 1.314-.225.344-.196.544-.538.6-1.026.053-.456-.055-.837-.325-1.144a1.533 1.533 0 0 0-.568-.401l.1-.858c.188.044.392.145.613.302.219.154.393.318.523.494.228.295.365.644.41 1.046.028.216.026.457-.005.722a2.203 2.203 0 0 1-.893 1.562c-.524.394-1.21.542-2.057.443-.834-.098-1.485-.403-1.953-.917-.468-.513-.66-1.136-.576-1.866Zm2.46-1.124c-.382-.008-.694.039-.935.142-.448.19-.705.565-.77 1.124-.046.401.06.754.32 1.06.257.305.607.492 1.051.56l.334-2.886Zm-1.644-2.86.178-.816.882.194c-.157-.104-.33-.314-.518-.629a1.303 1.303 0 0 1-.152-1.064l.061-.191.906.2a1.301 1.301 0 0 0-.085.276c-.094.432-.027.796.202 1.09.226.293.52.48.883.56l2.937.647-.187.858-5.107-1.125Zm1.251-4.909.258-.794.705.232c-.214-.331-.342-.65-.383-.954a2.1 2.1 0 0 1 .095-.94c.23-.706.63-1.102 1.202-1.188.314-.048.72.01 1.222.175l3.187 1.047-.276.85-3.132-1.029c-.303-.1-.562-.135-.776-.106-.358.047-.6.266-.727.656a1.731 1.731 0 0 0-.098.507c-.006.252.064.498.212.738.119.193.26.34.421.442.16.097.403.199.728.305l2.602.855-.271.836-4.969-1.632Zm2.161-5.813.355-.82 4.768 2.087-.355.82-4.768-2.088Zm-1.803-.79.356-.82.912.4-.355.82-.913-.4Zm4.668-5.274a2.36 2.36 0 0 1 .751-.817 1.96 1.96 0 0 1 .973-.369c.315-.026.64.021.976.141.235.072.583.236 1.044.492l-1.85 3.358c.472.244.905.341 1.3.293.392-.05.706-.29.943-.721.222-.402.266-.797.133-1.183a1.54 1.54 0 0 0-.372-.588l.416-.757c.157.113.308.285.453.515.143.225.242.444.296.656.099.36.093.736-.018 1.125-.056.21-.149.433-.278.667-.314.57-.786.939-1.417 1.105-.633.165-1.323.04-2.068-.375-.733-.408-1.22-.94-1.457-1.594-.238-.654-.18-1.303.175-1.948Zm2.698-.101c-.35-.154-.656-.23-.918-.226-.486.005-.864.254-1.136.747a1.34 1.34 0 0 0-.106 1.104c.121.38.374.687.758.92l1.402-2.545Zm-.439-3.271.474-.687.741.516c-.105-.157-.185-.417-.24-.78a1.307 1.307 0 0 1 .263-1.043c.024-.03.068-.082.13-.154l.76.53a1.3 1.3 0 0 0-.183.224c-.251.364-.327.726-.226 1.086.097.357.298.642.603.854l2.468 1.72-.499.723-4.29-2.989Zm6.088-2.136c.24.17.458.259.655.267.358.014.713-.189 1.064-.608.21-.249.34-.514.392-.794a.715.715 0 0 0-.264-.71.558.558 0 0 0-.582-.104c-.136.051-.36.19-.673.415l-.583.421c-.371.27-.677.442-.917.516-.424.135-.796.067-1.116-.204-.378-.32-.569-.715-.574-1.185-.003-.472.189-.94.575-1.4.507-.604 1.048-.89 1.625-.857.363.022.672.145.926.37l-.534.635a1.012 1.012 0 0 0-.548-.19c-.306.005-.619.199-.939.58-.213.255-.327.489-.341.703a.602.602 0 0 0 .22.52c.174.148.385.18.634.096.145-.047.323-.148.534-.303l.481-.353c.523-.385.908-.613 1.155-.685.391-.117.77-.02 1.138.292.355.302.547.698.577 1.188.032.489-.184 1.01-.648 1.563-.5.596-.989.905-1.466.927-.478.018-.923-.133-1.334-.453l.542-.647Zm6.131-7.45c.354.435.741.723 1.163.865.421.142.835.047 1.24-.285.314-.259.462-.606.444-1.041-.018-.44-.233-.915-.646-1.422-.417-.513-.829-.806-1.237-.88-.41-.076-.768.012-1.075.264-.342.281-.513.64-.514 1.079.003.436.21.91.625 1.42Zm-.723-2.989c.31-.254.622-.401.938-.441.182-.024.427-.003.734.06l-1.666-2.05.653-.536 4.538 5.586-.61.502-.46-.565c.045.38.005.715-.121 1.004a2.09 2.09 0 0 1-.608.777c-.45.37-.994.5-1.632.392-.64-.11-1.215-.482-1.729-1.113-.48-.591-.746-1.226-.797-1.904-.052-.682.202-1.253.76-1.712Zm7.798.296c.489-.318.704-.72.646-1.207a3.302 3.302 0 0 0-.525-1.418c-.265-.41-.545-.702-.842-.873-.468-.27-.956-.24-1.463.09-.45.294-.666.68-.649 1.157.018.479.184.961.497 1.448.302.468.656.791 1.061.97.406.178.83.123 1.275-.167Zm-2.58-4.065c.566-.368 1.164-.49 1.798-.367.633.124 1.186.552 1.659 1.285.456.709.662 1.407.616 2.093-.045.686-.43 1.265-1.152 1.736-.603.393-1.213.5-1.83.324-.62-.18-1.151-.614-1.595-1.303-.476-.74-.669-1.45-.577-2.13.091-.682.452-1.228 1.082-1.638Zm3.624-1.91.745-.377.332.664c.084-.385.22-.7.407-.944.188-.244.433-.442.735-.594.663-.335 1.226-.329 1.69.017.254.189.498.52.734.991L40 13l-.797.402-1.472-2.949c-.142-.285-.3-.494-.47-.626-.286-.221-.611-.24-.977-.055-.186.094-.33.19-.43.288a1.329 1.329 0 0 0-.375.67c-.053.22-.06.424-.017.61.044.183.142.427.294.733l1.223 2.45-.785.397-2.334-4.68Zm7.37.597c.127.265.275.45.442.553.306.187.715.184 1.227-.01.304-.115.547-.282.73-.5a.714.714 0 0 0 .116-.75.56.56 0 0 0-.459-.374c-.143-.022-.407-.011-.79.033l-.715.082c-.456.055-.806.055-1.052.002-.437-.089-.729-.33-.876-.723-.173-.464-.148-.901.077-1.314.227-.413.623-.726 1.186-.94.737-.278 1.35-.263 1.837.047a1.5 1.5 0 0 1 .629.775l-.776.294a1.013 1.013 0 0 0-.387-.434c-.27-.145-.637-.13-1.103.047-.31.118-.525.266-.641.446a.601.601 0 0 0-.061.561c.08.214.248.345.506.393.15.03.355.03.614-.003l.594-.073c.644-.08 1.092-.09 1.343-.033.398.09.682.36.85.811.164.436.139.875-.074 1.318-.21.441-.653.79-1.33 1.046-.727.275-1.305.306-1.732.092-.426-.218-.74-.567-.945-1.047l.79-.299Zm10.085-6.521a2.365 2.365 0 0 1 1.108.07c.373.11.673.284.9.525.22.229.388.511.506.847.093.229.186.602.277 1.122l-3.774.67c.108.52.305.918.592 1.195.286.273.67.366 1.155.28.452-.08.786-.293 1.003-.64.123-.2.197-.42.22-.658l.852-.152a1.82 1.82 0 0 1-.115.675 2.258 2.258 0 0 1-.323.643 2.053 2.053 0 0 1-.884.693c-.2.088-.43.156-.694.202a2.202 2.202 0 0 1-1.752-.407c-.528-.389-.865-1.003-1.013-1.843-.145-.828-.04-1.54.319-2.135.358-.596.899-.958 1.623-1.087Zm1.78 2.034c-.1-.369-.235-.654-.403-.856-.31-.374-.743-.512-1.297-.414a1.338 1.338 0 0 0-.924.61c-.219.334-.298.723-.236 1.169l2.86-.509Zm2.221-2.395.833-.054.048.74c.227-.321.474-.558.742-.709.267-.151.57-.238.908-.26.74-.048 1.257.177 1.55.677.162.273.26.673.294 1.199l.216 3.347-.891.059-.213-3.29c-.02-.318-.084-.571-.191-.76-.177-.315-.47-.459-.88-.432a1.73 1.73 0 0 0-.507.097 1.322 1.322 0 0 0-.606.47c-.135.182-.22.367-.253.555-.03.185-.034.448-.012.789l.177 2.733-.877.058-.338-5.219Zm11.093.182.88 4.396 1.955-4.052.955.116-2.58 4.955-.931-.113-1.292-5.425 1.013.123Zm5.114.859.874.187-1.08 5.092-.873-.188 1.08-5.091Zm.408-1.925.874.187-.207.974-.873-.187.206-.974Zm3.409 6.588c-.062.288-.058.524.011.71.128.336.453.585.976.748.31.096.605.114.882.054.278-.063.461-.237.548-.52a.564.564 0 0 0-.134-.578c-.1-.106-.315-.26-.644-.462l-.615-.375c-.394-.238-.671-.454-.833-.648-.29-.339-.374-.71-.251-1.11.145-.474.433-.804.861-.99.432-.187.936-.19 1.51-.012.753.234 1.228.624 1.424 1.17.122.344.13.677.025.999l-.793-.247a1.02 1.02 0 0 0-.041-.58c-.125-.28-.425-.495-.9-.643-.318-.099-.577-.113-.78-.043a.597.597 0 0 0-.39.405c-.067.218-.013.426.161.623.1.117.263.242.487.377l.514.308c.558.333.918.6 1.081.801.26.317.32.705.178 1.165-.137.445-.424.777-.863.995-.435.22-.998.221-1.688.007-.743-.231-1.218-.563-1.425-.996-.204-.435-.24-.904-.108-1.409l.806.25Zm5.845-1.692.826.341-1.97 4.818-.825-.341 1.97-4.818Zm.745-1.822.825.342-.376.922-.826-.342.377-.922Zm4.173 2.448.79.405-.657 1.303.743.38-.323.64-.744-.38-1.539 3.047c-.082.162-.082.3 0 .411.045.063.138.13.28.204l.122.062.159.064-.313.62a1.947 1.947 0 0 1-.311-.088 2.938 2.938 0 0 1-.322-.143c-.365-.187-.566-.406-.603-.659-.035-.255.023-.533.175-.832l1.56-3.09-.63-.322.324-.64.63.321.659-1.303Zm1.649 7.024a.728.728 0 0 0-.085.658c.078.224.224.404.438.54.26.166.552.267.872.301.539.062.952-.136 1.24-.593l.378-.6c-.127 0-.274-.025-.441-.078a3.517 3.517 0 0 1-.472-.185l-.486-.228c-.291-.136-.528-.208-.712-.216-.309-.016-.553.118-.732.401Zm2.743-.359c.184.087.343.088.477.003a.77.77 0 0 0 .23-.253c.16-.254.184-.495.074-.723-.105-.23-.326-.45-.66-.664-.388-.247-.728-.317-1.022-.211-.163.058-.331.192-.502.403l-.692-.44c.357-.537.772-.804 1.243-.8.476.002.937.145 1.385.43.518.331.877.699 1.076 1.104.196.402.162.813-.101 1.232l-1.607 2.548a.4.4 0 0 0-.072.215c.004.068.056.134.158.199.032.02.07.043.113.067.045.02.093.042.145.063l-.346.55a2.437 2.437 0 0 1-.303-.107 2.287 2.287 0 0 1-.255-.145c-.255-.162-.383-.371-.384-.627 0-.135.044-.298.13-.49-.275.102-.6.136-.975.102a2.38 2.38 0 0 1-1.073-.377c-.41-.26-.666-.598-.77-1.012a1.49 1.49 0 0 1 .204-1.185c.258-.41.586-.647.984-.71.398-.063.82.012 1.268.223l1.275.605Zm3.831.272.65.523-.462.58c.384-.084.725-.091 1.023-.022.299.069.58.21.844.422.578.465.807.982.688 1.55-.065.311-.261.673-.59 1.086l-2.09 2.625-.695-.56 2.052-2.58c.2-.249.323-.48.37-.692.082-.352-.038-.657-.357-.915a1.723 1.723 0 0 0-.439-.271 1.312 1.312 0 0 0-.762-.062 1.31 1.31 0 0 0-.56.24 3.695 3.695 0 0 0-.538.575l-1.706 2.143-.685-.551 3.257-4.092Zm5.807 3.134.637.62-1.014 1.051.598.583-.498.517-.598-.583-2.37 2.457c-.126.13-.166.262-.12.393.024.073.093.166.207.277l.098.096c.037.031.081.068.132.108l-.48.5a1.953 1.953 0 0 1-.272-.176 2.955 2.955 0 0 1-.266-.232c-.293-.286-.42-.555-.38-.808.042-.254.179-.502.412-.743l2.403-2.492-.507-.495.498-.516.507.494 1.013-1.051Zm6.381 6.551.524.706-5.738 4.304-.524-.706 5.738-4.304Zm-1.931 7.447a.73.73 0 0 0-.369.552 1.03 1.03 0 0 0 .154.678c.16.265.376.484.648.657.455.294.913.3 1.374.02l.604-.37a1.501 1.501 0 0 1-.36-.266 3.593 3.593 0 0 1-.341-.376l-.333-.42c-.201-.25-.382-.42-.542-.51-.271-.151-.549-.14-.835.035Zm2.618.896c.126.16.268.231.426.215a.77.77 0 0 0 .318-.126c.255-.156.384-.36.387-.614.008-.252-.091-.548-.297-.888-.237-.393-.511-.607-.821-.643-.173-.02-.382.026-.63.139l-.424-.703c.559-.322 1.048-.377 1.469-.165.426.214.775.547 1.05 1.002.318.526.476 1.015.475 1.466-.003.448-.216.801-.638 1.059l-2.572 1.57a.399.399 0 0 0-.159.16c-.027.063-.01.146.053.249.02.033.044.07.072.11l.101.121-.554.339a2.518 2.518 0 0 1-.224-.23 2.352 2.352 0 0 1-.164-.243c-.156-.26-.178-.503-.066-.732a1.26 1.26 0 0 1 .335-.382c-.293-.03-.599-.145-.92-.342a2.378 2.378 0 0 1-.794-.814c-.251-.415-.331-.831-.241-1.249.095-.416.331-.74.709-.97.414-.253.813-.32 1.197-.2.385.12.73.375 1.037.763l.875 1.108Zm1.548 9.789c.142.385.42.645.834.778.418.136.947.084 1.588-.155.39-.146.705-.328.943-.546.461-.415.587-.907.377-1.475-.211-.57-.641-.855-1.289-.852-.347 0-.755.089-1.224.264-.378.142-.679.318-.903.53-.427.403-.536.889-.326 1.456Zm3.534-3.749.296.802-.649.242c.283.082.522.198.716.348.286.21.498.502.637.877.205.556.166 1.107-.118 1.655-.28.546-.815.967-1.605 1.262-1.067.398-1.933.404-2.597.016a2.015 2.015 0 0 1-.891-1.074c-.137-.37-.171-.71-.101-1.02.037-.181.134-.403.29-.667l-2.502.935-.305-.824 6.829-2.552Zm-1.574 7.55a.726.726 0 0 0-.515.417 1.032 1.032 0 0 0-.053.694c.075.3.217.573.426.819.348.415.784.557 1.308.425l.687-.173a1.502 1.502 0 0 1-.266-.361 3.653 3.653 0 0 1-.216-.46l-.195-.499c-.118-.3-.241-.515-.368-.648-.213-.224-.483-.296-.808-.214Zm2.239 1.631c.074.19.189.3.344.331.085.02.199.01.341-.025.29-.073.474-.23.552-.472.081-.238.074-.55-.022-.936-.112-.445-.31-.73-.597-.856-.158-.071-.372-.09-.642-.055l-.199-.796c.629-.142 1.113-.049 1.453.278.344.33.58.752.709 1.267.149.597.156 1.11.022 1.54-.135.427-.443.7-.922.822l-2.922.737a.401.401 0 0 0-.2.106c-.044.051-.051.135-.022.252.009.038.022.08.036.127l.062.146-.63.158a2.292 2.292 0 0 1-.146-.285 2.1 2.1 0 0 1-.085-.28c-.074-.294-.023-.534.152-.719.094-.097.238-.186.432-.265-.27-.117-.53-.316-.778-.6a2.368 2.368 0 0 1-.519-1.011c-.118-.471-.072-.892.137-1.264.214-.37.535-.608.964-.716.47-.12.872-.064 1.204.164.332.229.587.574.766 1.036l.51 1.316Zm2.942 4.674a1.9 1.9 0 0 1-.155 1.105c-.091.18-.232.37-.425.571l.653-.09.109.804-4.711.647c-.658.09-1.191.065-1.598-.076-.752-.265-1.196-.899-1.332-1.902-.076-.558-.014-1.045.186-1.46.196-.414.558-.681 1.084-.8l.12.886c-.227.074-.394.183-.503.326-.167.223-.221.546-.164.968.091.668.386 1.073.885 1.215.294.084.796.072 1.508-.035a1.72 1.72 0 0 1-.676-.548c-.162-.227-.271-.543-.326-.946a2.114 2.114 0 0 1 .395-1.557c.343-.475.974-.775 1.893-.901.867-.12 1.573-.001 2.118.354.545.36.858.839.939 1.439Zm-2.447 1.933c.642-.088 1.099-.286 1.373-.593s.383-.665.327-1.075c-.083-.613-.427-.993-1.032-1.14-.323-.077-.732-.081-1.229-.013-.584.08-1.013.259-1.287.536a1.17 1.17 0 0 0-.325 1.02c.085.627.427 1.028 1.026 1.206.339.098.721.117 1.147.059Zm2.891 4.609a2.36 2.36 0 0 1-.236 1.086 1.968 1.968 0 0 1-.653.813 2.336 2.336 0 0 1-.913.376c-.24.058-.623.094-1.15.107l-.099-3.831c-.53.03-.953.166-1.269.409-.313.242-.463.61-.45 1.1.011.46.172.822.482 1.087.179.152.386.257.618.316l.023.864a1.82 1.82 0 0 1-.651-.212 2.27 2.27 0 0 1-.587-.415 2.047 2.047 0 0 1-.552-.977 2.992 2.992 0 0 1-.097-.716 2.207 2.207 0 0 1 .666-1.673c.463-.465 1.121-.708 1.974-.73.839-.022 1.527.188 2.062.63.536.442.813 1.031.832 1.766Zm-2.278 1.461c.38-.045.682-.136.907-.272.417-.252.618-.66.603-1.222a1.331 1.331 0 0 0-.465-1.004c-.297-.266-.67-.401-1.119-.406l.074 2.904Zm-1.167 7.187c-.552-.092-1.034-.052-1.445.12-.411.173-.659.517-.744 1.035-.067.401.051.759.352 1.073.304.318.779.53 1.424.638.652.109 1.156.056 1.511-.159.359-.214.57-.517.635-.909a1.33 1.33 0 0 0-.326-1.148c-.289-.326-.758-.542-1.407-.65Zm2.516 1.76c-.065.395-.203.712-.414.951-.122.138-.319.285-.592.441l2.605.434-.137.834-7.099-1.183.128-.78.718.119c-.285-.255-.475-.533-.571-.833a2.092 2.092 0 0 1-.055-.984c.095-.575.418-1.033.968-1.373.555-.34 1.233-.443 2.036-.31.751.126 1.37.425 1.856.899.489.477.674 1.072.557 1.785Zm-6.065 4.951c-.157.56-.053 1.005.312 1.331.368.33.811.57 1.331.717.47.132.873.165 1.21.098.53-.107.877-.452 1.04-1.035.145-.517.052-.95-.276-1.296-.329-.347-.773-.6-1.33-.757-.536-.151-1.015-.16-1.438-.026-.423.134-.706.457-.849.968Zm4.624 1.343c-.182.649-.551 1.136-1.109 1.462-.557.326-1.256.37-2.096.133-.811-.23-1.426-.616-1.845-1.161-.419-.545-.512-1.233-.279-2.063.193-.693.581-1.177 1.161-1.453.584-.274 1.271-.3 2.06-.077.846.24 1.459.645 1.84 1.216s.471 1.219.268 1.943Zm-2.073 5.773c-.217.548-.526.94-.928 1.175-.402.238-.942.262-1.619.071l.314-.794c.319.071.61.06.875-.034.268-.092.477-.33.628-.71.207-.52.1-.995-.319-1.422-.271-.278-.649-.513-1.132-.707-.487-.195-.937-.256-1.351-.183-.414.072-.709.33-.884.772-.134.338-.137.647-.01.926.13.284.359.535.689.755l-.315.794c-.608-.348-.989-.764-1.145-1.247-.152-.482-.116-1.006.109-1.572.251-.635.683-1.05 1.296-1.243.615-.191 1.27-.148 1.965.13.852.342 1.433.815 1.743 1.42.31.604.338 1.227.084 1.869Zm-2.071 4.023-3.069-1.624c-.236-.124-.448-.189-.637-.193-.349-.008-.622.177-.819.555-.284.543-.236 1.04.145 1.492.203.243.531.484.983.723l2.27 1.201-.407.779-4.623-2.445.385-.735.677.369a1.792 1.792 0 0 1-.248-.612c-.086-.425-.018-.85.204-1.273.345-.66.801-.994 1.366-1 .304-.006.653.096 1.047.304l3.143 1.662-.417.797Zm-2.654 4.633-.495.714-.608-.426c.092.319.137.581.137.788a1.71 1.71 0 0 1-.319.981c-.237.342-.512.559-.825.65-.177.05-.393.058-.646.023.118.322.156.629.115.922a1.909 1.909 0 0 1-.339.848c-.401.578-.881.825-1.442.742-.302-.045-.642-.2-1.02-.465l-2.85-2 .52-.75 2.974 2.087c.285.2.531.265.738.195a1.02 1.02 0 0 0 .522-.41 1.28 1.28 0 0 0 .226-.933c-.049-.335-.294-.659-.736-.969l-2.49-1.747.509-.734 2.794 1.96c.29.204.526.318.708.342.276.03.518-.104.726-.404.189-.273.256-.595.202-.968-.057-.37-.361-.748-.913-1.135l-2.27-1.593.501-.722 4.281 3.004Zm-6.114 7.998a2.358 2.358 0 0 1-.916.626c-.36.144-.704.19-1.03.14a2.32 2.32 0 0 1-.919-.359c-.213-.123-.515-.362-.906-.716l2.56-2.852c-.403-.345-.803-.538-1.198-.58-.392-.04-.753.123-1.081.488-.307.342-.44.716-.398 1.123.026.234.103.454.23.657l-.577.644a1.828 1.828 0 0 1-.324-.604 2.273 2.273 0 0 1-.14-.707 2.062 2.062 0 0 1 .272-1.092 3.03 3.03 0 0 1 .421-.587 2.194 2.194 0 0 1 1.63-.756c.655-.017 1.297.26 1.929.834.622.564.975 1.192 1.058 1.883.084.692-.12 1.311-.611 1.858Zm-2.65-.512c.306.23.587.372.842.428.475.105.9-.052 1.276-.47.27-.301.387-.651.353-1.052-.032-.398-.209-.754-.531-1.068l-1.94 2.162Zm-.289 3.274-.623.557-.491-.557c.018.395-.032.734-.15 1.018-.118.285-.303.54-.555.765-.554.495-1.099.635-1.636.421-.294-.117-.616-.373-.965-.768l-2.222-2.514.667-.595 2.182 2.469c.212.24.417.401.617.484.332.14.65.073.957-.2a1.75 1.75 0 0 0 .34-.389c.132-.215.195-.463.189-.745a1.33 1.33 0 0 0-.141-.595 3.734 3.734 0 0 0-.474-.631l-1.814-2.052.656-.586 3.463 3.918Zm-4.05 5.231-.715.527-.86-1.181-.672.495-.422-.58.672-.495-2.008-2.76c-.107-.147-.228-.21-.365-.186-.076.011-.178.064-.306.159l-.11.081c-.038.031-.08.069-.13.113l-.407-.561c.064-.083.136-.163.218-.239.079-.074.17-.149.272-.224.33-.243.615-.324.856-.242.243.084.462.262.66.533l2.036 2.799.57-.419.423.58-.57.42.858 1.18Zm-6.975-1.693a.72.72 0 0 0-.544-.375 1.03 1.03 0 0 0-.678.15 2.004 2.004 0 0 0-.662.646c-.298.455-.31.915-.034 1.38l.36.61c.058-.114.147-.235.27-.361a3.5 3.5 0 0 1 .377-.339l.422-.332c.252-.201.424-.381.514-.541.154-.27.146-.55-.025-.838Zm-.922 2.622c-.16.126-.233.268-.218.427a.776.776 0 0 0 .12.32c.153.257.356.389.608.393.251.009.547-.088.888-.292.394-.236.61-.509.65-.821.022-.172-.022-.384-.131-.633l.704-.421c.314.563.363 1.055.147 1.477-.217.425-.553.774-1.009 1.047-.528.316-1.016.471-1.465.467-.447-.007-.796-.223-1.047-.648l-1.534-2.593a.394.394 0 0 0-.158-.162c-.062-.028-.145-.01-.248.051-.033.02-.07.044-.11.072-.04.031-.08.065-.122.101l-.33-.559c.097-.103.174-.178.23-.223.056-.045.138-.099.244-.163.26-.155.503-.176.73-.061.12.061.245.174.376.338.034-.293.151-.6.351-.921.2-.32.473-.584.82-.792.416-.249.831-.326 1.246-.233.413.098.733.337.958.719.247.417.308.818.185 1.203-.124.386-.381.731-.772 1.036l-1.113.871Zm-1.979 3.283-.807.383-2.214-4.71.807-.384 2.214 4.711Zm.838 1.78-.808.384-.423-.901.807-.384.424.901Zm-4.985.036-.782.293-.314-.847c-.003.189-.086.447-.249.776a1.303 1.303 0 0 1-.732.681 9.035 9.035 0 0 1-.274.076l-.322-.87a1.259 1.259 0 0 0 .279-.078c.414-.155.683-.409.806-.761a1.486 1.486 0 0 0-.007-1.045l-1.045-2.82.823-.309 1.817 4.904Zm-6.86 2.27a2.35 2.35 0 0 1-1.11.02c-.38-.078-.693-.227-.939-.449a2.325 2.325 0 0 1-.573-.803c-.111-.22-.233-.585-.366-1.095l3.706-.978c-.15-.509-.379-.89-.687-1.142-.307-.249-.698-.31-1.173-.185-.444.117-.76.357-.948.72-.107.21-.162.435-.167.675l-.835.22a1.822 1.822 0 0 1 .059-.682 2.27 2.27 0 0 1 .27-.667c.192-.32.467-.574.825-.763.191-.104.416-.191.674-.259a2.201 2.201 0 0 1 1.78.263c.557.345.943.929 1.159 1.755.212.812.164 1.53-.145 2.154-.308.623-.818 1.029-1.53 1.216Zm-1.939-1.882c.131.36.288.633.472.82.34.348.782.45 1.326.307.39-.103.68-.331.871-.685.192-.35.238-.744.14-1.183l-2.809.741Zm-2.886-1.518-1.007.165-.17-1.05 1.007-.165.17 1.05Z" fill="#000"/></svg>